<?xml version="1.0" encoding="UTF-8" standalone="no"?>
<!DOCTYPE svg PUBLIC "-//W3C//DTD SVG 1.1//EN"
"http://www.w3.org/Graphics/SVG/1.1/DTD/svg11.dtd">


<!-- Page 1 -->
<svg x="0" y="0" width="1575" height="1755" viewBox="0 0 1575 1755" version="1.1" xmlns="http://www.w3.org/2000/svg" xmlns:xlink="http://www.w3.org/1999/xlink"
style="display: block;margin-left: auto;margin-right: auto;">
<defs>
<clipPath id="c_1"><path d="M0,0H1575V1755H0Z"/></clipPath>
<clipPath id="c0"><path d="M0 1755.3V0H1575V1755.3Z"/></clipPath>
<clipPath id="c1"><path d="M243.4 885.2V743.5H396.7V885.2Z"/></clipPath>
<clipPath id="c2"><path d="M249.7 575.8V423.5H408.4V575.8Z"/></clipPath>
<clipPath id="c3"><path d="M984.4 833.2c-49.7 0 -90 -37.3 -90 -83.2c0 -45.9 40.3 -83.2 90 -83.2c49.7 0 90 37.3 90 83.2c0 45.9 -40.3 83.2 -90 83.2Z"/></clipPath>
<clipPath id="c4"><path d="M694 556.2V382.8H867.4V556.2Z"/></clipPath>
<clipPath id="c5"><path d="M229.4 1724.8V1574.2H421.7v150.6Z"/></clipPath>
<clipPath id="c6"><path d="M232.4 1415.8V1259.2H427.7v156.6Z"/></clipPath>
<clipPath id="c7"><path d="M1.4 311.8V.2H439V311.8Z"/></clipPath>
<clipPath id="c8"><path d="M207 1107.5V933.2H434v174.3Z"/></clipPath>
<clipPath id="c9"><path d="M984.4 545.5c-49.7 0 -90 -36.2 -90 -80.8c0 -44.7 40.3 -80.9 90 -80.9c49.7 0 90 36.2 90 80.9c0 44.6 -40.3 80.8 -90 80.8Z"/></clipPath>
<clipPath id="ca"><path d="M986.7 1345.2c-49.7 0 -90 -37.3 -90 -83.2c0 -45.9 40.3 -83.2 90 -83.2c49.7 0 90 37.3 90 83.2c0 45.9 -40.3 83.2 -90 83.2Z"/></clipPath>
<clipPath id="cb"><path d="M984.4 1684.2c-49.7 0 -90 -37.3 -90 -83.2c0 -45.9 40.3 -83.2 90 -83.2c49.7 0 90 37.3 90 83.2c0 45.9 -40.3 83.2 -90 83.2Z"/></clipPath>
<clipPath id="cc"><path d="M694.4 808.5V635.2H867.7V808.5Z"/></clipPath>
<clipPath id="cd"><path d="M697.4 1644.5V1471.2h173v173.3Z"/></clipPath>
<clipPath id="ce"><path d="M692.4 1362.5v-173h175v173Z"/></clipPath>

<style type="text/css"><![CDATA[
text { white-space: pre; }
path, image { pointer-events: none; }

.s0{
font-size: 42.67px;
font-family: TimesNewRomanPSMT_13;
fill: #000;
}
.s1{
font-size: 30.67px;
font-family: Meiryo-Bold_16;
fill: #000;
}
.s2{
font-size: 42.67px;
font-family: TimesNewRomanPS-BoldMT_19;
fill: #FFF;
}
.s3{
font-size: 42.67px;
font-family: TimesNewRomanPSMT_13;
fill: #C00000;
}
.s4{
font-size: 42.67px;
font-family: CambriaMath_1c;
fill: #000;
}
.s5{
font-size: 31.00px;
font-family: CambriaMath_1f;
fill: #000;
}
.s6{
font-size: 36.67px;
font-family: CambriaMath_1i;
fill: #000;
}
.s7{
font-size: 26.67px;
font-family: CambriaMath_1l;
fill: #000;
}

.g0{
fill: #FFF;
}
.g1{
fill: #C00000;
}
.g2{
fill: none;
stroke: #000;
stroke-width: 4.583;
stroke-linejoin: round;
}
.g3{
fill: none;
stroke: #000;
stroke-width: 2.291;
stroke-linejoin: round;
}
.g4{
fill: #000;
}
.g5{
fill: #002060;
}
.g6{
fill: none;
stroke: #000;
stroke-width: 1.909;
stroke-linejoin: round;
}
.g7{
fill: #DDD;
}
.g8{
fill: none;
stroke: #0070C0;
stroke-width: 4.583;
stroke-linejoin: round;
}
.g9{
fill: none;
stroke: #C00000;
stroke-width: 4.583;
stroke-linejoin: round;
}

]]></style>

</defs>
<path d="M0,0
L0,1755
L1575,1755
L1575,0 Z " 
fill="#FFFFFF" stroke="none"/>
<g clip-path="url(#c_1)">
<path clip-path="url(#c0)" d="M0 0H1575V1755.3H0Z" class="g0"/>
<path d="M1503.5 1315.2l-421 -4.3v-4.6l421 4.3Zm-418.8 .3l-13.7 -7l13.8 -6.7Z" class="g1"/>
<path d="M1498.7 499.6l-410.3 .7v6.9l410.3 -.8Zm-406.9 -6.2l-20.6 10.4l20.6 10.2Z" class="g1"/>
<path d="M1428.6 199.9H1070.3c-.9 0 -1.8 .4 -2.4 1c-.7 .7 -1 1.5 -1 2.4l.1 95h6.9l-.2 -95l-3.4 3.5h358.3ZM1060 295.3l11.2 20.2l9.4 -21Z" class="g1"/>
<path d="M125 317.5H517.7V916.8H125Z" class="g2"/>
<image clip-path="url(#c1)" preserveAspectRatio="none" x="243" y="743" width="154" height="142" xlink:href="1/img/1.png"/>
<path d="M208.5 727.6c0 -12.8 10.5 -23.3 23.3 -23.3H415.2c12.9 0 23.3 10.5 23.3 23.3V884.1c0 12.8 -10.4 23.2 -23.3 23.2H231.8c-12.8 0 -23.3 -10.4 -23.3 -23.2Z" class="g3"/>
<path fill-rule="evenodd" d="M252.9 684c0 -3 2.3 -5.3 5.3 -5.3H388.9c2.9 0 5.3 2.3 5.3 5.3v35.7c0 2.9 -2.4 5.3 -5.3 5.3H258.2c-3 0 -5.3 -2.4 -5.3 -5.3Z" class="g0"/>
<path d="M252.9 684c0 -3 2.3 -5.3 5.3 -5.3H388.9c2.9 0 5.3 2.3 5.3 5.3v35.7c0 2.9 -2.4 5.3 -5.3 5.3H258.2c-3 0 -5.3 -2.4 -5.3 -5.3Z" class="g3"/>
<text x="274.1" y="717.3" dx="0,.1,.1,0,0" class="s0">ID: N </text>
<image clip-path="url(#c2)" preserveAspectRatio="none" x="250" y="424" width="158" height="152" xlink:href="1/img/2.png"/>
<path d="M207.5 412.5c0 -13 10.6 -23.5 23.6 -23.5H414c13 0 23.5 10.5 23.5 23.5V570.8c0 13 -10.5 23.5 -23.5 23.5H231.1c-13 0 -23.6 -10.5 -23.6 -23.5Z" class="g3"/>
<path fill-rule="evenodd" d="M258.9 371c0 -2.9 2.4 -5.3 5.3 -5.3H385.8c3 0 5.4 2.4 5.4 5.3v36c0 2.9 -2.4 5.3 -5.4 5.3H264.2c-2.9 0 -5.3 -2.4 -5.3 -5.3Z" class="g0"/>
<path d="M258.9 371c0 -2.9 2.4 -5.3 5.3 -5.3H385.8c3 0 5.4 2.4 5.4 5.3v36c0 2.9 -2.4 5.3 -5.4 5.3H264.2c-2.9 0 -5.3 -2.4 -5.3 -5.3Z" class="g3"/>
<text x="280.4" y="404.3" dx="0,.1,.1,0,0" class="s0">ID: 1 </text>
<text x="296.8" y="626" class="s1">・ </text>
<text x="296.8" y="656.6" class="s1">・ </text>
<path d="M774.9 445.6h704.6v6.8H774.9Zm701.2 -6.9l20.6 10.3l-20.6 10.3Z" class="g4"/>
<path d="M783.2 747l696.2 -.2v-6.9l-696.2 .2Zm692.7 6.7l20.7 -10.4L1475.9 733Z" class="g4"/>
<path fill-rule="evenodd" d="M894.4 637.2l180 45V816.5l-180 45Z" class="g5"/>
<path d="M894.4 637.2l180 45V816.5l-180 45Z" class="g6"/>
<image clip-path="url(#c3)" preserveAspectRatio="none" x="894" y="667" width="180" height="166" xlink:href="1/img/3.jpg"/>
<path d="M894.4 716.2h182v55.3h-182Z" class="g5"/>
<text x="908.2" y="759.3" dx="0,0,.2,0,0,.2,0" class="s2">Encoder </text>
<path d="M1558.2 393.7V866h-61.7V393.7Z" class="g7"/>
<path d="M1558.2 393.7V866h-61.7V393.7Z" class="g3"/>
<text transform="matrix(0,1,-1,0,1511.5,479.3)" dx="0,0,0,0,0,0,0,0,.2,0,0,0,0,0,.1,0,0" class="s0">Cosine Similarity </text>
<image clip-path="url(#c4)" preserveAspectRatio="none" x="694" y="383" width="173" height="173" xlink:href="1/img/4.jpg"/>
<path d="M692.9 381.7H868.5V557.3H692.9Z" class="g3"/>
<path d="M436.7 471.9H579.2v4.6H436.7Zm140.2 -4.6l13.7 6.9L576.9 481Z" class="g4"/>
<path d="M651.5 373.3V816H590.9V373.3Z" class="g7"/>
<path d="M651.5 373.3V816H590.9V373.3Z" class="g3"/>
<text transform="matrix(0,1,-1,0,605.4,428)" dx="0,.1,0,0,0,-2.3,.1,0,0,0,0,0,0,0,0,0,0" class="s0">Data Augmentation </text>
<text x="721.6" y="63" dx="0,.1,0,0,.1,.1,.1,0,.1,0,.1,0" class="s0">Pseudo Label </text>
<path d="M324.3 1107.6l.3 20.7l-6.9 .1l-.3 -20.7Zm7.1 17.2l-10 20.7l-10.6 -20.4Z" class="g4"/>
<image clip-path="url(#c5)" preserveAspectRatio="none" x="229" y="1574" width="193" height="151" xlink:href="1/img/5.png"/>
<path d="M209.9 1558.2c0 -13 10.5 -23.5 23.5 -23.5H416.3c13 0 23.6 10.5 23.6 23.5v158c0 12.9 -10.6 23.5 -23.6 23.5H233.4c-13 0 -23.5 -10.6 -23.5 -23.5Z" class="g3"/>
<path fill-rule="evenodd" d="M255.2 1516.4c0 -3 2.4 -5.4 5.4 -5.4H391.1c3 0 5.4 2.4 5.4 5.4v36.2c0 3 -2.4 5.4 -5.4 5.4H260.6c-3 0 -5.4 -2.4 -5.4 -5.4Z" class="g0"/>
<path d="M255.2 1516.4c0 -3 2.4 -5.4 5.4 -5.4H391.1c3 0 5.4 2.4 5.4 5.4v36.2c0 3 -2.4 5.4 -5.4 5.4H260.6c-3 0 -5.4 -2.4 -5.4 -5.4Z" class="g3"/>
<text x="276.4" y="1550" dx="0,.1,.1,0,0" class="s0">ID: N </text>
<image clip-path="url(#c6)" preserveAspectRatio="none" x="232" y="1259" width="196" height="157" xlink:href="1/img/6.png"/>
<path d="M217.2 1251.8c0 -12.9 10.5 -23.5 23.5 -23.5h183c13 0 23.5 10.6 23.5 23.5v158c0 13 -10.5 23.5 -23.5 23.5h-183c-13 0 -23.5 -10.5 -23.5 -23.5Z" class="g3"/>
<path fill-rule="evenodd" d="M262.2 1210.1c0 -3 2.4 -5.4 5.4 -5.4H398.4c3 0 5.5 2.4 5.5 5.4v36.5c0 3 -2.5 5.4 -5.5 5.4H267.6c-3 0 -5.4 -2.4 -5.4 -5.4Z" class="g0"/>
<path d="M262.2 1210.1c0 -3 2.4 -5.4 5.4 -5.4H398.4c3 0 5.5 2.4 5.5 5.4v36.5c0 3 -2.5 5.4 -5.5 5.4H267.6c-3 0 -5.4 -2.4 -5.4 -5.4Z" class="g3"/>
<text x="288.3" y="1244" dx="0,.1,.1,0,0" class="s0">ID: 1 </text>
<text x="308.4" y="1461.3" class="s1">・ </text>
<text x="308.4" y="1491.9" class="s1">・ </text>
<path d="M125 1145.5H517.4v606.7H125Z" class="g2"/>
<path d="M784.4 1285.6l707.5 -4.4v-4.6L784.3 1281Zm705.2 .2l13.7 -7l-13.8 -6.8Z" class="g4"/>
<path d="M783 1571.8l708.9 -4.6v-4.6L783 1567.2Zm706.6 0l13.7 -7l-13.8 -6.8Z" class="g4"/>
<path d="M1568.2 1208.3v453.4h-64.7V1208.3Z" class="g7"/>
<path d="M1568.2 1208.3v453.4h-64.7V1208.3Z" class="g3"/>
<text transform="matrix(0,1,-1,0,1520,1284.7)" dx="0,0,0,0,0,0,0,0,.2,0,0,0,0,0,.1,0,0" class="s0">Cosine Similarity </text>
<path d="M651.5 1196v447H590.9V1196Z" class="g7"/>
<path d="M651.5 1196v447H590.9V1196Z" class="g3"/>
<text transform="matrix(0,1,-1,0,605.5,1252.7)" dx="0,.1,0,0,0,-2.3,.1,0,0,0,0,0,0,0,0,0,0" class="s0">Data Augmentation </text>
<path d="M542.4 476.2V1563.8c0 1.3 1 2.3 2.3 2.3l30.9 .2v-4.6l-30.9 -.2l2.3 2.3V476.2Zm30.4 1094.4l14.3 -5.7l-13.2 -8Z" class="g4"/>
<path d="M544.7 714.9h34.5v4.6H544.7Zm32.2 -4.6l13.8 6.9L576.9 724Z" class="g4"/>
<path d="M1478.5 77.7V359h-60V77.7Z" class="g7"/>
<path d="M1478.5 77.7V359h-60V77.7Z" class="g3"/>
<text transform="matrix(0,1,-1,0,1432.8,95.3)" dx="0,0,.1,0,0,0,0,.1,0,0,.1,0,0" class="s0">Cross Entropy </text>
<path d="M1085.9 446.1h.2c1.9 0 3.4 -1.6 3.4 -3.5V218.3l-3.4 3.5h315.3v-6.9H1086.1c-1.9 0 -3.4 1.5 -3.4 3.4V442.6l3.4 -3.4h-.2ZM1398 228.6l20.6 -10.3L1398 208Z" class="g4"/>
<path d="M1376.9 114.7V348h-60V114.7Z" class="g7"/>
<path d="M1376.9 114.7V348h-60V114.7Z" class="g3"/>
<text transform="matrix(0,1,-1,0,1331,127.3)" dx="0,.1,0,.1,0,0,.1,0,0,0,.1,0" class="s0">Linear layer </text>
<path d="M1108 68.5c0 -7 5.7 -12.7 12.7 -12.7h370c7 0 12.7 5.7 12.7 12.7V358.1c0 7 -5.7 12.7 -12.7 12.7h-370c-7 0 -12.7 -5.7 -12.7 -12.7Z" class="g8"/>
<path fill-rule="evenodd" d="M1135 44.8c0 -2.5 2.1 -4.6 4.7 -4.6H1341c2.6 0 4.7 2.1 4.7 4.6V94.2c0 2.5 -2.1 4.6 -4.7 4.6H1139.7c-2.6 0 -4.7 -2.1 -4.7 -4.6Z" class="g0"/>
<path d="M1135 44.8c0 -2.5 2.1 -4.6 4.7 -4.6H1341c2.6 0 4.7 2.1 4.7 4.6V94.2c0 2.5 -2.1 4.6 -4.7 4.6H1139.7c-2.6 0 -4.7 -2.1 -4.7 -4.6Z" class="g8"/>
<text x="1158.5" y="85" dx="0,0,0,0,0,0,0,.1,0,0" class="s0">Classifier </text>
<path d="M468.1 319.7V19.1c0 -1.9 1.5 -3.4 3.4 -3.4H1539.9c1.9 0 3.4 1.5 3.4 3.4V218.3c0 1.9 -1.5 3.5 -3.4 3.5h-44v-6.9h44l-3.5 3.4V19.1l3.5 3.5H471.5L475 19.1V319.7ZM1499.3 228.6l-20.6 -10.3L1499.3 208Z" class="g4"/>
<text x="1011.2" y="630.3" dx="0,-3.4,0,0,.1,.1,0,.1,.1,.1,0,.1" class="s0">Weight Share </text>
<path d="M986.7 567.3v80.9h-4.6V567.3Zm-9.2 2.3l6.9 -13.8l6.8 13.8Zm13.7 76.3l-6.8 13.7l-6.9 -13.7Z" class="g4"/>
<path d="M986.7 850.3l1.9 309.6H984L982.1 850.3Zm-9.1 2.3l6.8 -13.8l6.9 13.7Zm15.5 305l-6.8 13.8l-6.9 -13.7Z" class="g4"/>
<text x="1000.5" y="1042.3" dx="0,-3.4,0,0,.1,.1,0,.1,.1,.1,0,.1" class="s0">Weight Share </text>
<text x="986.7" y="1456.3" dx="0,-3.4,0,0,.1,.1,0,.1,.1,.1,0,.1" class="s0">Weight Share </text>
<path d="M983.9 1366.6L982.2 1499l4.6 .1l1.6 -132.4Zm9.1 2.4l-6.7 -13.8l-7 13.6Zm-15.3 127.6l6.7 13.9l7 -13.7Z" class="g4"/>
<image clip-path="url(#c7)" preserveAspectRatio="none" x="1" y="0" width="438" height="312" xlink:href="1/img/7.png"/>
<path d="M296.6 148.3V295h-6.8V148.3Zm6.9 143.2l-10.3 20.7L282.9 291.5Z" class="g4"/>
<text x="1119.7" y="184.7" dx="0,0,0,0,0,0,0,.1,0,0" class="s3">Back prop. </text>
<text x="1302.5" y="544.3" dx="0,0,0,0,0,0,0,.1,0,0" class="s3">Back prop. </text>
<path d="M1359.5 717.5l-5.1 41.4m23.4 -40.7l-5.1 41.4" class="g9"/>
<text x="1282.1" y="798.3" dx="0,.1,0,.1,.1,0,.1,.1,0,.1" class="s3">Stop grad. </text>
<path d="M1302.5 1538.2l-5.1 41.4m23.4 -40.8l-5.1 41.4" class="g9"/>
<text x="1185.6" y="428.3" class="s4"> </text>
<text x="1208.1" y="439" class="s5">! </text>
<text x="1210.4" y="411" class="s5">" </text>
<text x="1365.1" y="431.3" class="s4"> </text>
<text x="1384.7" y="442" class="s5">! </text>
<text x="1387.8" y="413.7" class="s5">" </text>
<text x="759.3" y="602" class="s6"> </text>
<text x="778.4" y="611" class="s7">! </text>
<text x="780.8" y="587" class="s7">" </text>
<text x="752.1" y="1408" class="s4"> </text>
<text x="774.4" y="1418.7" class="s5">! </text>
<text x="777.2" y="1390.7" class="s5"># </text>
<text x="1204.9" y="724.3" class="s4"> </text>
<text x="1227.4" y="734.7" class="s5">! </text>
<text x="1229.7" y="706.7" class="s5">" </text>
<text x="750.6" y="855.3" class="s4"> </text>
<text x="772.9" y="866" class="s5">! </text>
<text x="775.7" y="838" class="s5">$" </text>
<text x="754.6" y="1692.3" class="s4"> </text>
<text x="776.9" y="1703" class="s5">! </text>
<text x="779.7" y="1675" class="s5">" </text>
<text x="1177.5" y="1258.3" class="s4"> </text>
<text x="1200" y="1269" class="s5">! </text>
<text x="1202.3" y="1240.7" class="s5"># </text>
<text x="1352.5" y="1265.7" class="s4"> </text>
<text x="1372.1" y="1276" class="s5">! </text>
<text x="1375.2" y="1248" class="s5"># </text>
<text x="1205" y="1548.3" class="s4"> </text>
<text x="1227.5" y="1559" class="s5">! </text>
<text x="1229.8" y="1531" class="s5">" </text>
<image clip-path="url(#c8)" preserveAspectRatio="none" x="207" y="933" width="227" height="174" xlink:href="1/img/8.png"/>
<path d="M204.7 930.9H436.3v178.9H204.7V930.9Z" class="g2"/>
<text x="131.1" y="1187.3" dx="0,.1,0,.1,.1,0,.1,.1,0,0,.1,.1,.1,0,.1,.1,0,0,0,.1" class="s0">Few-shot Supervision </text>
<text x="151.4" y="358.7" dx="0,0,0,0,0,0,0,.1,0,0,0,.1,0,0,0,0,0,0" class="s0">Robot Observations </text>
<path d="M447.7 1272.5H579.3v4.6H447.7ZM577 1268l13.7 6.8l-13.7 6.9Z" class="g4"/>
<path fill-rule="evenodd" d="M894.4 353.8l180 45V533.2l-180 45Z" class="g5"/>
<path d="M894.4 353.8l180 45V533.2l-180 45Z" class="g6"/>
<image clip-path="url(#c9)" preserveAspectRatio="none" x="894" y="384" width="180" height="162" xlink:href="1/img/9.jpg"/>
<path d="M894.4 438.2h182v55.3h-182Z" class="g5"/>
<text x="908.2" y="481.7" dx="0,0,.2,0,0,.2,0" class="s2">Encoder </text>
<path fill-rule="evenodd" d="M896.4 1148.8l180 45v138.7l-180 45Z" class="g5"/>
<path d="M896.4 1148.8l180 45v138.7l-180 45Z" class="g6"/>
<image clip-path="url(#ca)" preserveAspectRatio="none" x="897" y="1179" width="180" height="166" xlink:href="1/img/10.jpg"/>
<path d="M896.4 1235.5h182v55.3h-182Z" class="g5"/>
<text x="910.2" y="1279" dx="0,0,.2,0,0,.2,0" class="s2">Encoder </text>
<path fill-rule="evenodd" d="M894.7 1487.8l179.7 44.9v138.9l-179.7 44.9Z" class="g5"/>
<path d="M894.7 1487.8l179.7 44.9v138.9l-179.7 44.9Z" class="g6"/>
<image clip-path="url(#cb)" preserveAspectRatio="none" x="894" y="1518" width="180" height="166" xlink:href="1/img/11.jpg"/>
<path d="M894.4 1576.8h182v55.4h-182Z" class="g5"/>
<text x="908.2" y="1620" dx="0,0,.2,0,0,.2,0" class="s2">Encoder </text>
<path d="M1160.9 1198v186.7h-54.7V1198Z" class="g7"/>
<path d="M1160.9 1198v186.7h-54.7V1198Z" class="g3"/>
<text transform="matrix(0,1,-1,0,1117.7,1213)" dx="0,.1,.1,.1,0,0,0,0,.1" class="s0">Projector </text>
<text x="1308.3" y="1380.3" dx="0,0,0,0,0,0,0,.1,0,0" class="s3">Back prop. </text>
<text x="1227.1" y="1608.7" dx="0,.1,0,.1,.1,0,.1,.1,0,.1" class="s3">Stop grad. </text>
<image clip-path="url(#cc)" preserveAspectRatio="none" x="694" y="635" width="174" height="174" xlink:href="1/img/12.jpg"/>
<path d="M693.2 634H868.8V809.6H693.2Z" class="g3"/>
<image clip-path="url(#cd)" preserveAspectRatio="none" x="697" y="1471" width="173" height="174" xlink:href="1/img/13.jpg"/>
<path d="M696.2 1470H871.5v175.6H696.2Z" class="g3"/>
<path d="M1161.2 1486v186.7h-54.7V1486Z" class="g7"/>
<path d="M1161.2 1486v186.7h-54.7V1486Z" class="g3"/>
<text transform="matrix(0,1,-1,0,1118.1,1501)" dx="0,.1,.1,.1,0,0,0,0,.1" class="s0">Projector </text>
<path d="M1291.2 1196.3V1383h-54.3V1196.3Z" class="g7"/>
<path d="M1291.2 1196.3V1383h-54.3V1196.3Z" class="g3"/>
<text transform="matrix(0,1,-1,0,1248.2,1211.3)" dx="0,.1,.1,0,.1,0,0,0,.1" class="s0">Predictor </text>
<path d="M1161.2 385.7V572.3h-54.7V385.7Z" class="g7"/>
<path d="M1161.2 385.7V572.3h-54.7V385.7Z" class="g3"/>
<text transform="matrix(0,1,-1,0,1118.1,400.7)" dx="0,.1,.1,.1,0,0,0,0,.1" class="s0">Projector </text>
<path d="M1161.5 651.3V838h-54.3V651.3Z" class="g7"/>
<path d="M1161.5 651.3V838h-54.3V651.3Z" class="g3"/>
<text transform="matrix(0,1,-1,0,1118.5,666)" dx="0,.1,.1,.1,0,0,0,0,.1" class="s0">Projector </text>
<path d="M1291.9 384V570.7h-54.7V384Z" class="g7"/>
<path d="M1291.9 384V570.7h-54.7V384Z" class="g3"/>
<text transform="matrix(0,1,-1,0,1248.6,399)" dx="0,.1,.1,0,.1,0,0,0,.1" class="s0">Predictor </text>
<path d="M654.4 714.9h28.4v4.6H654.4Zm26.1 -4.6l13.7 6.9L680.5 724Z" class="g4"/>
<path d="M655 472.9h28.4v4.6H655Zm26.1 -4.6l13.8 6.9L681.1 482Z" class="g4"/>
<path d="M655 1271.9h28.4v4.6H655Zm26.1 -4.6l13.8 6.9l-13.8 6.8Z" class="g4"/>
<image clip-path="url(#ce)" preserveAspectRatio="none" x="692" y="1190" width="175" height="173" xlink:href="1/img/14.jpg"/>
<path d="M691.2 1188.4H868.5v175.2H691.2Z" class="g3"/>
<path d="M653 1561.9h28.4v4.6H653Zm26.1 -4.6l13.8 6.9l-13.8 6.8Z" class="g4"/>

</g>

<!-- Any embedded fonts defined here -->
<style type="text/css" ><![CDATA[

@font-face {
	font-family: CambriaMath_1c;
	src: url("fonts/CambriaMath_1c.woff") format("woff");
}

@font-face {
	font-family: CambriaMath_1f;
	src: url("fonts/CambriaMath_1f.woff") format("woff");
}

@font-face {
	font-family: CambriaMath_1i;
	src: url("fonts/CambriaMath_1i.woff") format("woff");
}

@font-face {
	font-family: CambriaMath_1l;
	src: url("fonts/CambriaMath_1l.woff") format("woff");
}

@font-face {
	font-family: Meiryo-Bold_16;
	src: url("fonts/Meiryo-Bold_16.woff") format("woff");
}

@font-face {
	font-family: TimesNewRomanPS-BoldMT_19;
	src: url("fonts/TimesNewRomanPS-BoldMT_19.woff") format("woff");
}

@font-face {
	font-family: TimesNewRomanPSMT_13;
	src: url("fonts/TimesNewRomanPSMT_13.woff") format("woff");
}

]]></style>

</svg>
